<?xml version="1.0" standalone="no"?>
<!DOCTYPE svg PUBLIC "-//W3C//DTD SVG 20010904//EN"
 "http://www.w3.org/TR/2001/REC-SVG-20010904/DTD/svg10.dtd">
<svg version="1.0" xmlns="http://www.w3.org/2000/svg"
 width="969.000000pt" height="731.000000pt" viewBox="0 0 969.000000 731.000000"
 preserveAspectRatio="xMidYMid meet">
<metadata>
Created by potrace 1.16, written by Peter Selinger 2001-2019
</metadata>
<g transform="translate(0.000000,731.000000) scale(0.100000,-0.100000)"
fill="#fff" stroke="none">
<path d="M4637 7299 c-843 -81 -1564 -702 -1771 -1527 -81 -319 -81 -675 0
-994 148 -590 565 -1093 1113 -1344 246 -112 443 -164 709 -186 244 -20 541
16 773 93 667 223 1174 765 1343 1437 81 319 81 675 0 994 -148 590 -565 1093
-1113 1344 -170 77 -291 118 -445 149 -211 42 -407 53 -609 34z m434 -40 c355
-36 692 -166 979 -378 93 -69 263 -232 341 -327 321 -392 481 -923 429 -1424
-93 -896 -778 -1610 -1666 -1736 -145 -20 -408 -20 -549 1 -438 65 -809 256
-1121 576 -262 270 -430 589 -510 964 -35 165 -45 483 -20 655 63 430 251 807
556 1110 411 409 992 617 1561 559z"/>
<path d="M4720 7124 c-14 -2 -63 -9 -110 -15 -185 -25 -450 -116 -615 -212
-158 -91 -252 -164 -385 -297 -162 -162 -246 -277 -340 -465 -107 -215 -173
-440 -187 -640 -6 -80 -5 -82 22 -103 35 -28 60 -28 89 1 18 18 24 38 29 99
15 170 75 382 157 554 131 273 370 539 622 693 474 288 1045 330 1548 112 156
-68 338 -186 448 -290 48 -47 89 -54 122 -21 34 34 26 75 -22 121 -258 242
-643 415 -1023 459 -84 9 -299 12 -355 4z"/>
<path d="M5313 6172 c-64 -23 -119 -61 -155 -106 l-27 -34 -68 19 c-86 25
-251 27 -345 5 -402 -93 -654 -483 -572 -884 72 -350 379 -602 735 -602 120 0
220 24 338 82 91 44 116 62 190 137 98 98 151 181 187 296 47 147 51 326 10
441 l-13 39 49 47 c27 27 61 73 76 105 36 78 38 203 3 274 -75 155 -256 235
-408 181z m128 -144 c90 -26 162 -126 162 -222 0 -66 -20 -110 -77 -174 -54
-62 -60 -80 -52 -164 18 -192 18 -273 1 -338 -56 -220 -228 -407 -439 -477
-70 -23 -97 -27 -201 -27 -104 0 -131 4 -201 27 -163 54 -311 184 -387 340
-48 97 -67 178 -67 282 0 409 378 716 788 641 120 -22 147 -16 223 50 35 30
77 58 94 63 44 13 112 13 156 -1z"/>
<path d="M6626 5114 c-78 -86 -169 -153 -297 -219 -235 -121 -476 -151 -648
-82 l-57 23 -34 -48 c-47 -68 -165 -175 -246 -224 -152 -90 -285 -127 -459
-127 -245 -1 -464 89 -633 261 l-64 64 -46 -20 c-70 -30 -152 -42 -288 -42
-279 0 -534 85 -686 228 -37 36 -68 60 -68 54 0 -26 53 -207 85 -292 222 -581
717 -1010 1316 -1139 562 -120 1142 31 1581 414 291 253 507 632 577 1011 22
120 34 204 29 203 -2 0 -29 -29 -62 -65z m-136 -270 c0 -9 -13 -56 -30 -105
-201 -600 -710 -1037 -1338 -1151 -234 -42 -532 -24 -773 46 -391 114 -757
393 -969 741 -56 92 -140 263 -140 287 0 24 6 23 76 -8 83 -37 220 -71 337
-85 121 -14 328 -6 406 15 63 18 74 14 143 -50 178 -165 478 -262 723 -234
234 26 418 115 597 287 61 58 93 83 105 79 10 -2 27 -7 38 -10 198 -55 486 5
723 149 97 60 102 62 102 39z"/>
<path d="M1138 2530 c-304 -35 -568 -167 -784 -393 -165 -171 -274 -378 -326
-617 -31 -143 -29 -356 5 -512 80 -368 314 -678 647 -856 298 -161 676 -191
1002 -82 155 53 399 204 461 287 15 20 32 53 37 72 14 49 13 705 -1 754 -5 21
-22 50 -37 66 -15 15 -19 18 -10 6 35 -43 38 -73 38 -431 0 -287 -3 -360 -14
-382 -20 -39 -69 -82 -166 -148 -258 -174 -562 -245 -860 -199 -141 21 -232
50 -356 110 -357 174 -600 498 -669 892 -19 109 -19 306 0 414 67 386 332 728
696 898 253 119 588 143 849 62 35 -11 66 -19 68 -17 6 6 -89 35 -183 55 -107
24 -290 33 -397 21z"/>
<path d="M2525 2511 c-50 -22 -92 -71 -100 -114 -3 -18 -4 -538 -3 -1157 l3
-1125 24 -33 c51 -67 161 -93 238 -55 21 10 51 38 68 61 l30 44 0 1121 1 1122
-6 -1095 c-5 -1072 -5 -1096 -25 -1129 -23 -39 -77 -71 -120 -71 -40 0 -90 32
-115 72 -20 33 -20 49 -18 1155 3 1121 3 1122 24 1150 11 15 45 38 75 50 l54
22 -45 0 c-25 1 -63 -8 -85 -18z"/>
<path d="M1165 2210 c-217 -35 -438 -163 -575 -336 -69 -87 -150 -246 -177
-349 -14 -54 -18 -106 -18 -225 0 -186 14 -249 86 -396 93 -190 237 -336 424
-429 131 -65 239 -89 405 -89 154 0 221 13 363 74 180 78 197 103 197 296 0
143 -11 180 -63 218 -27 20 -46 21 -285 26 -244 5 -259 6 -293 27 -33 21 -66
74 -70 113 -5 49 4 74 39 111 33 35 45 41 105 50 100 16 744 8 777 -9 23 -12
24 -12 6 2 -11 9 -33 18 -50 21 -17 3 -212 5 -433 3 l-401 -3 -44 -31 c-60
-44 -83 -86 -83 -155 0 -71 41 -143 100 -176 38 -21 51 -23 246 -23 225 0 303
-10 334 -40 18 -19 20 -34 20 -164 0 -171 1 -168 -120 -226 -116 -56 -212 -81
-340 -87 -326 -16 -615 138 -785 417 -106 175 -146 407 -104 608 72 352 360
628 714 683 44 7 120 9 185 6 173 -9 290 -50 449 -155 55 -36 80 -47 123 -50
137 -11 239 95 217 227 l-8 46 -6 -50 c-7 -64 -31 -99 -84 -125 -65 -31 -94
-26 -182 32 -101 66 -205 114 -302 139 -89 23 -276 33 -367 19z"/>
<path d="M3678 1830 c-173 -31 -353 -125 -486 -254 -105 -100 -210 -280 -249
-426 -28 -103 -25 -348 5 -460 48 -177 157 -354 281 -456 212 -175 483 -259
722 -224 355 52 629 271 754 605 30 80 46 166 36 201 -7 26 -8 23 -13 -26 -4
-30 -21 -95 -38 -143 -138 -378 -551 -620 -950 -556 -180 28 -343 113 -475
244 -148 147 -229 312 -256 524 -30 238 57 499 230 684 123 130 275 218 447
258 78 18 114 21 221 17 153 -6 233 -25 351 -84 48 -24 78 -36 67 -28 -37 28
-114 64 -208 96 -84 28 -105 31 -242 34 -82 2 -171 -1 -197 -6z"/>
<path d="M5528 1830 c-106 -19 -244 -76 -338 -140 -183 -125 -310 -299 -377
-517 -23 -78 -26 -105 -27 -238 0 -174 17 -260 83 -399 102 -219 252 -363 480
-462 274 -118 597 -87 857 85 227 150 381 391 389 611 4 83 4 83 -4 20 -34
-278 -278 -559 -574 -661 -313 -108 -659 -28 -893 205 -114 115 -187 245 -229
411 -84 332 41 690 315 897 78 59 220 130 310 154 69 19 297 26 395 12 l50 -7
-45 15 c-53 18 -318 28 -392 14z"/>
<path d="M7145 1829 c-43 -16 -103 -77 -116 -118 -30 -91 6 -197 82 -241 43
-24 50 -25 309 -30 257 -6 268 -7 315 -30 30 -15 63 -43 83 -69 59 -78 68 -75
-283 -82 -334 -6 -343 -7 -459 -66 -169 -85 -277 -214 -332 -398 -24 -81 -24
-239 0 -320 71 -238 259 -414 491 -461 143 -29 348 3 512 81 53 25 104 45 113
45 10 0 26 -12 35 -28 35 -55 70 -83 122 -98 48 -14 58 -14 106 0 57 16 118
70 136 119 8 19 10 218 9 605 l-3 577 -5 -577 -5 -577 -30 -31 c-78 -81 -201
-57 -256 51 -30 60 -53 60 -173 0 -57 -28 -138 -60 -182 -71 -113 -30 -261
-36 -348 -16 -208 49 -390 229 -436 431 -15 66 -15 202 0 267 32 135 123 265
243 345 135 91 161 96 530 102 300 6 319 7 333 25 8 11 14 32 14 46 0 35 -48
108 -96 148 -69 57 -100 62 -378 62 -225 0 -255 2 -286 19 -104 54 -108 199
-8 261 32 20 46 21 328 17 205 -2 304 -7 324 -15 16 -7 31 -10 33 -8 3 3 -19
12 -49 22 -44 14 -102 18 -348 20 -196 2 -305 0 -325 -7z"/>
<path d="M8599 1817 c-29 -16 -54 -40 -74 -72 l-30 -48 -3 -760 -2 -759 24
-53 c56 -123 198 -158 300 -73 74 61 70 31 76 638 6 609 3 585 78 663 58 60
99 77 188 77 76 0 80 -1 177 -57 87 -50 106 -56 156 -57 105 -1 181 67 196
174 l7 45 -26 -53 c-21 -43 -34 -56 -70 -72 -65 -29 -120 -14 -244 68 -48 32
-61 36 -137 40 -73 4 -90 1 -138 -21 -77 -35 -129 -86 -163 -159 l-29 -63 -5
-552 c-5 -535 -6 -552 -25 -579 -67 -89 -192 -81 -250 17 -20 33 -20 52 -20
789 0 744 0 756 21 790 28 49 78 80 128 80 30 0 37 3 26 10 -28 18 -114 11
-161 -13z"/>
<path d="M3702 1495 c-218 -75 -361 -246 -393 -470 -12 -88 2 -193 28 -212 24
-19 67 -16 94 5 13 11 182 130 374 267 193 136 356 255 363 264 7 9 12 32 10
51 -3 31 -9 38 -54 62 -118 64 -292 77 -422 33z m301 -85 c35 -11 71 -27 78
-36 12 -15 9 -20 -21 -45 -104 -85 -703 -500 -715 -495 -40 15 -26 195 24 301
41 88 80 136 159 195 137 105 304 133 475 80z"/>
<path d="M5591 1504 c-145 -39 -285 -150 -353 -280 -52 -99 -70 -180 -66 -290
3 -103 19 -134 68 -134 19 0 134 76 401 265 206 146 382 275 392 287 43 51 -1
104 -122 142 -95 30 -229 35 -320 10z m276 -95 c108 -35 106 -49 -15 -131 -40
-27 -200 -139 -353 -249 -154 -109 -286 -199 -294 -199 -21 0 -29 84 -16 170
13 87 61 193 116 258 41 48 133 114 200 143 95 42 247 45 362 8z"/>
<path d="M4611 1367 c-1 -22 -9 -52 -18 -69 -12 -19 -196 -157 -516 -386 -315
-225 -502 -364 -508 -379 -15 -41 6 -72 68 -100 185 -81 391 -64 555 47 117
78 186 172 232 312 14 43 30 87 36 98 19 35 70 60 125 60 43 1 47 2 30 12 -11
7 -43 12 -71 11 -94 -1 -170 -62 -195 -157 -40 -149 -143 -280 -274 -348 -95
-48 -159 -62 -264 -55 -97 6 -214 42 -219 68 -2 11 23 35 70 68 609 433 878
627 901 649 51 48 72 110 57 172 l-8 35 -1 -38z"/>
<path d="M6455 1306 c-17 -36 -84 -86 -497 -381 -262 -187 -488 -350 -502
-363 -35 -30 -35 -74 0 -101 14 -11 51 -30 82 -42 317 -120 662 60 757 396 18
66 27 80 69 113 32 24 110 30 149 11 21 -9 21 -9 3 5 -25 20 -111 38 -144 30
-87 -21 -139 -75 -168 -174 -44 -150 -140 -267 -276 -335 -89 -44 -163 -59
-268 -52 -93 5 -203 41 -208 68 -2 11 132 111 395 299 219 156 440 314 490
352 104 76 146 131 141 182 l-3 32 -20 -40z"/>
<path d="M7307 926 c-135 -49 -215 -185 -187 -320 6 -29 17 -62 25 -72 12 -15
12 -11 -1 21 -39 97 2 209 100 270 l49 30 271 3 c154 1 277 -1 285 -7 11 -7
12 -17 2 -55 -22 -90 -63 -159 -135 -231 -108 -107 -217 -155 -354 -155 -72 0
-108 15 -167 69 l-40 36 35 -38 c19 -21 55 -51 80 -65 40 -24 55 -27 140 -27
118 0 200 26 305 96 113 76 195 193 230 326 20 75 19 80 -10 108 l-24 25 -283
0 c-212 -1 -293 -4 -321 -14z"/>
<path d="M548 628 c-22 -23 -35 -28 -78 -28 -31 0 -66 8 -91 21 -40 20 -40 20
-30 0 6 -11 48 -58 92 -106 241 -254 525 -379 864 -379 259 0 481 71 690 222
111 80 125 104 125 206 -1 60 -3 76 -11 63 -13 -23 -62 -47 -94 -47 -31 0 -81
24 -88 42 -3 8 -7 6 -12 -7 -34 -99 -53 -119 -170 -177 -253 -127 -539 -142
-794 -42 -104 41 -217 113 -300 189 l-76 70 -27 -27z m92 -153 c191 -161 473
-242 744 -215 123 12 204 36 348 104 76 36 106 56 139 95 l42 49 56 -5 c31 -3
57 -7 59 -8 1 -1 -3 -16 -9 -33 -11 -33 -71 -82 -176 -145 -281 -170 -619
-203 -944 -93 -142 49 -343 174 -423 265 -22 24 -23 23 29 43 46 17 46 17 135
-57z"/>
<path d="M4401 622 c-28 -56 -138 -162 -211 -205 -140 -82 -308 -107 -458 -69
-159 40 -232 101 -217 179 4 23 19 49 40 69 l34 32 -52 -20 c-110 -43 -293
-32 -386 23 -18 11 -36 18 -38 15 -5 -5 26 -67 56 -111 12 -17 30 -30 43 -30
13 -1 67 -2 121 -3 l97 -2 0 -37 c0 -98 124 -176 325 -204 174 -24 340 20 490
131 54 40 125 115 153 162 8 14 25 29 36 32 36 10 86 7 86 -5 0 -6 -19 -39
-41 -73 -112 -166 -271 -277 -469 -327 -123 -31 -280 -24 -402 18 -155 54
-264 128 -372 253 -30 36 -33 38 -15 10 13 -19 49 -60 80 -91 339 -335 894
-309 1201 55 46 55 138 208 138 230 0 3 -49 6 -110 6 l-110 0 -19 -38z"/>
<path d="M4995 602 c53 -103 56 -106 127 -104 35 2 87 5 116 8 l52 6 0 -38 c0
-42 27 -95 63 -125 40 -32 176 -80 263 -91 207 -27 429 53 569 204 l56 60 44
-13 c25 -7 45 -17 45 -21 0 -4 -28 -37 -62 -74 -151 -161 -324 -242 -538 -251
-150 -6 -231 11 -369 78 -92 45 -117 63 -198 144 -51 52 -85 81 -74 67 43 -60
151 -154 229 -201 411 -246 941 -92 1156 337 l27 53 -40 -26 c-51 -35 -112
-43 -146 -21 -14 9 -25 23 -25 31 0 26 -14 16 -43 -30 -68 -107 -240 -222
-375 -250 -134 -29 -268 -14 -395 43 -70 32 -97 64 -97 116 0 49 18 83 57 107
42 26 38 34 -8 15 -19 -8 -73 -22 -119 -32 -116 -23 -204 -16 -280 24 l-59 30
24 -46z"/>
<path d="M7895 587 c-102 -155 -318 -264 -509 -255 -91 4 -145 25 -212 82 -46
39 -98 131 -109 191 -7 39 -7 39 -23 18 -41 -51 -104 -54 -155 -5 l-29 27 6
-35 c4 -19 12 -54 17 -76 11 -41 11 -41 47 -33 56 13 60 12 81 -28 43 -84 99
-141 179 -180 74 -37 79 -38 182 -37 183 2 335 68 467 202 l71 73 33 -17 c33
-16 119 -16 162 1 16 7 17 -5 17 -158 0 -137 -3 -168 -16 -181 -18 -18 -44
-21 -62 -6 -7 5 -3 0 8 -13 32 -34 104 -31 136 6 24 28 24 29 24 259 l0 231
-23 -21 c-69 -65 -181 -68 -232 -7 l-20 24 -40 -62z"/>
<path d="M8630 602 c0 -15 3 -44 6 -64 7 -38 7 -38 55 -38 l49 0 0 -148 c0
-165 -10 -198 -56 -189 -19 3 -22 2 -13 -9 30 -37 124 -21 149 25 6 12 10 105
10 230 l0 211 -32 -20 c-47 -28 -108 -26 -142 5 l-26 24 0 -27z"/>
<path d="M2550 407 l0 -215 29 -31 c16 -17 39 -31 51 -31 29 0 76 26 84 45 3
9 6 113 6 232 l0 214 -26 -20 c-15 -12 -41 -21 -59 -21 -18 0 -44 9 -59 21
l-26 20 0 -214z m88 -32 c4 -143 -3 -201 -25 -209 -37 -15 -43 10 -43 176 l0
159 33 -3 32 -3 3 -120z"/>
<path d="M7030 280 c95 -88 207 -137 330 -147 137 -10 335 39 451 113 24 15
63 29 87 32 57 6 34 22 -33 22 -40 0 -70 -10 -152 -51 -193 -95 -408 -116
-545 -52 -35 17 -79 43 -98 59 -52 44 -80 61 -40 24z"/>
</g>
</svg>
